<svg xmlns="http://www.w3.org/2000/svg" viewBox="0 0 100 100" preserveAspectRatio="xMidYMid" width="200" height="200" style="shape-rendering: auto; display: block; background: transparent;" xmlns:xlink="http://www.w3.org/1999/xlink"><g><g transform="rotate(0 50 50)">
  <rect fill="#008374" height="8" width="6" ry="4" rx="3" y="26" x="47">
    <animate repeatCount="indefinite" begin="-1.053639846743295s" dur="1.1494252873563218s" keyTimes="0;1" values="1;0" attributeName="opacity"></animate>
  </rect>
</g><g transform="rotate(30 50 50)">
  <rect fill="#008374" height="8" width="6" ry="4" rx="3" y="26" x="47">
    <animate repeatCount="indefinite" begin="-0.9578544061302683s" dur="1.1494252873563218s" keyTimes="0;1" values="1;0" attributeName="opacity"></animate>
  </rect>
</g><g transform="rotate(60 50 50)">
  <rect fill="#008374" height="8" width="6" ry="4" rx="3" y="26" x="47">
    <animate repeatCount="indefinite" begin="-0.8620689655172414s" dur="1.1494252873563218s" keyTimes="0;1" values="1;0" attributeName="opacity"></animate>
  </rect>
</g><g transform="rotate(90 50 50)">
  <rect fill="#008374" height="8" width="6" ry="4" rx="3" y="26" x="47">
    <animate repeatCount="indefinite" begin="-0.7662835249042146s" dur="1.1494252873563218s" keyTimes="0;1" values="1;0" attributeName="opacity"></animate>
  </rect>
</g><g transform="rotate(120 50 50)">
  <rect fill="#008374" height="8" width="6" ry="4" rx="3" y="26" x="47">
    <animate repeatCount="indefinite" begin="-0.6704980842911877s" dur="1.1494252873563218s" keyTimes="0;1" values="1;0" attributeName="opacity"></animate>
  </rect>
</g><g transform="rotate(150 50 50)">
  <rect fill="#008374" height="8" width="6" ry="4" rx="3" y="26" x="47">
    <animate repeatCount="indefinite" begin="-0.574712643678161s" dur="1.1494252873563218s" keyTimes="0;1" values="1;0" attributeName="opacity"></animate>
  </rect>
</g><g transform="rotate(180 50 50)">
  <rect fill="#008374" height="8" width="6" ry="4" rx="3" y="26" x="47">
    <animate repeatCount="indefinite" begin="-0.47892720306513414s" dur="1.1494252873563218s" keyTimes="0;1" values="1;0" attributeName="opacity"></animate>
  </rect>
</g><g transform="rotate(210 50 50)">
  <rect fill="#008374" height="8" width="6" ry="4" rx="3" y="26" x="47">
    <animate repeatCount="indefinite" begin="-0.3831417624521073s" dur="1.1494252873563218s" keyTimes="0;1" values="1;0" attributeName="opacity"></animate>
  </rect>
</g><g transform="rotate(240 50 50)">
  <rect fill="#008374" height="8" width="6" ry="4" rx="3" y="26" x="47">
    <animate repeatCount="indefinite" begin="-0.2873563218390805s" dur="1.1494252873563218s" keyTimes="0;1" values="1;0" attributeName="opacity"></animate>
  </rect>
</g><g transform="rotate(270 50 50)">
  <rect fill="#008374" height="8" width="6" ry="4" rx="3" y="26" x="47">
    <animate repeatCount="indefinite" begin="-0.19157088122605365s" dur="1.1494252873563218s" keyTimes="0;1" values="1;0" attributeName="opacity"></animate>
  </rect>
</g><g transform="rotate(300 50 50)">
  <rect fill="#008374" height="8" width="6" ry="4" rx="3" y="26" x="47">
    <animate repeatCount="indefinite" begin="-0.09578544061302682s" dur="1.1494252873563218s" keyTimes="0;1" values="1;0" attributeName="opacity"></animate>
  </rect>
</g><g transform="rotate(330 50 50)">
  <rect fill="#008374" height="8" width="6" ry="4" rx="3" y="26" x="47">
    <animate repeatCount="indefinite" begin="0s" dur="1.1494252873563218s" keyTimes="0;1" values="1;0" attributeName="opacity"></animate>
  </rect>
</g><g></g></g><!-- [ldio] generated by https://loading.io --></svg>